<svg id="svg" version="1.1" xmlns="http://www.w3.org/2000/svg" xmlns:xlink="http://www.w3.org/1999/xlink" width="400" height="400" viewBox="0, 0, 400,400"><g id="svgg"><path id="path0" d="M130.800 11.200 C 130.800 11.420,130.260 11.600,129.600 11.600 C 128.940 11.600,128.400 11.780,128.400 12.000 C 128.400 12.220,128.040 12.400,127.600 12.400 C 127.160 12.400,126.800 12.580,126.800 12.800 C 126.800 13.020,126.260 13.200,125.600 13.200 C 124.940 13.200,124.400 13.380,124.400 13.600 C 124.400 13.820,124.040 14.000,123.600 14.000 C 123.160 14.000,122.800 14.180,122.800 14.400 C 122.800 14.620,122.260 14.800,121.600 14.800 C 120.940 14.800,120.400 14.980,120.400 15.200 C 120.400 15.420,120.040 15.600,119.600 15.600 C 119.160 15.600,118.800 15.780,118.800 16.000 C 118.800 16.220,118.440 16.400,118.000 16.400 C 117.560 16.400,117.200 16.580,117.200 16.800 C 117.200 17.020,116.840 17.200,116.400 17.200 C 115.960 17.200,115.600 17.380,115.600 17.600 C 115.600 17.820,115.060 18.000,114.400 18.000 C 113.740 18.000,113.200 18.180,113.200 18.400 C 113.200 18.620,112.840 18.800,112.400 18.800 C 111.960 18.800,111.600 18.980,111.600 19.200 C 111.600 19.420,111.240 19.600,110.800 19.600 C 110.360 19.600,110.000 19.780,110.000 20.000 C 110.000 20.220,109.640 20.400,109.200 20.400 C 108.760 20.400,108.400 20.580,108.400 20.800 C 108.400 21.020,108.080 21.200,107.688 21.200 C 107.297 21.200,106.717 21.560,106.400 22.000 C 106.083 22.440,105.503 22.800,105.112 22.800 C 104.720 22.800,104.400 22.980,104.400 23.200 C 104.400 23.420,104.040 23.600,103.600 23.600 C 103.160 23.600,102.800 23.780,102.800 24.000 C 102.800 24.220,102.440 24.400,102.000 24.400 C 101.560 24.400,101.200 24.580,101.200 24.800 C 101.200 25.020,100.880 25.200,100.488 25.200 C 100.097 25.200,99.517 25.560,99.200 26.000 C 98.883 26.440,98.303 26.800,97.912 26.800 C 97.520 26.800,97.200 26.980,97.200 27.200 C 97.200 27.420,96.880 27.600,96.488 27.600 C 96.097 27.600,95.517 27.960,95.200 28.400 C 94.883 28.840,94.303 29.200,93.912 29.200 C 93.520 29.200,93.200 29.380,93.200 29.600 C 93.200 29.820,92.880 30.000,92.488 30.000 C 92.097 30.000,91.517 30.360,91.200 30.800 C 90.883 31.240,90.343 31.600,90.000 31.600 C 89.657 31.600,89.117 31.960,88.800 32.400 C 88.483 32.840,87.943 33.200,87.600 33.200 C 87.257 33.200,86.717 33.560,86.400 34.000 C 86.083 34.440,85.575 34.800,85.272 34.800 C 84.969 34.800,84.217 35.340,83.600 36.000 C 82.983 36.660,82.231 37.200,81.928 37.200 C 81.625 37.200,81.117 37.560,80.800 38.000 C 80.483 38.440,79.979 38.800,79.680 38.800 C 79.382 38.800,78.446 39.520,77.600 40.400 C 76.754 41.280,75.854 42.000,75.600 42.000 C 75.346 42.000,74.446 42.720,73.600 43.600 C 72.754 44.480,71.859 45.200,71.609 45.200 C 71.360 45.200,70.096 46.280,68.800 47.600 C 67.504 48.920,66.253 50.000,66.020 50.000 C 65.465 50.000,50.000 65.465,50.000 66.020 C 50.000 66.253,48.920 67.504,47.600 68.800 C 46.280 70.096,45.200 71.360,45.200 71.609 C 45.200 71.859,44.455 72.779,43.544 73.654 L 41.887 75.246 42.844 75.920 C 44.652 77.194,132.131 120.767,132.465 120.560 C 132.843 120.326,132.934 12.415,132.557 11.433 C 132.293 10.745,130.800 10.548,130.800 11.200 M267.443 11.433 C 267.066 12.415,267.157 120.326,267.535 120.560 C 267.869 120.767,355.348 77.194,357.156 75.920 L 358.113 75.246 356.456 73.654 C 355.545 72.779,354.800 71.859,354.800 71.609 C 354.800 71.360,353.720 70.096,352.400 68.800 C 351.080 67.504,350.000 66.253,350.000 66.020 C 350.000 65.465,334.535 50.000,333.980 50.000 C 333.747 50.000,332.496 48.920,331.200 47.600 C 329.904 46.280,328.640 45.200,328.391 45.200 C 328.141 45.200,327.246 44.480,326.400 43.600 C 325.554 42.720,324.654 42.000,324.400 42.000 C 324.146 42.000,323.246 41.280,322.400 40.400 C 321.554 39.520,320.618 38.800,320.320 38.800 C 320.021 38.800,319.517 38.440,319.200 38.000 C 318.883 37.560,318.375 37.200,318.072 37.200 C 317.769 37.200,317.017 36.660,316.400 36.000 C 315.783 35.340,315.031 34.800,314.728 34.800 C 314.425 34.800,313.917 34.440,313.600 34.000 C 313.283 33.560,312.743 33.200,312.400 33.200 C 312.057 33.200,311.517 32.840,311.200 32.400 C 310.883 31.960,310.343 31.600,310.000 31.600 C 309.657 31.600,309.117 31.240,308.800 30.800 C 308.483 30.360,307.903 30.000,307.512 30.000 C 307.120 30.000,306.800 29.820,306.800 29.600 C 306.800 29.380,306.480 29.200,306.088 29.200 C 305.697 29.200,305.117 28.840,304.800 28.400 C 304.483 27.960,303.903 27.600,303.512 27.600 C 303.120 27.600,302.800 27.420,302.800 27.200 C 302.800 26.980,302.480 26.800,302.088 26.800 C 301.697 26.800,301.117 26.440,300.800 26.000 C 300.483 25.560,299.903 25.200,299.512 25.200 C 299.120 25.200,298.800 25.020,298.800 24.800 C 298.800 24.580,298.440 24.400,298.000 24.400 C 297.560 24.400,297.200 24.220,297.200 24.000 C 297.200 23.780,296.840 23.600,296.400 23.600 C 295.960 23.600,295.600 23.420,295.600 23.200 C 295.600 22.980,295.280 22.800,294.888 22.800 C 294.497 22.800,293.917 22.440,293.600 22.000 C 293.283 21.560,292.703 21.200,292.312 21.200 C 291.920 21.200,291.600 21.020,291.600 20.800 C 291.600 20.580,291.240 20.400,290.800 20.400 C 290.360 20.400,290.000 20.220,290.000 20.000 C 290.000 19.780,289.640 19.600,289.200 19.600 C 288.760 19.600,288.400 19.420,288.400 19.200 C 288.400 18.980,288.040 18.800,287.600 18.800 C 287.160 18.800,286.800 18.620,286.800 18.400 C 286.800 18.180,286.260 18.000,285.600 18.000 C 284.940 18.000,284.400 17.820,284.400 17.600 C 284.400 17.380,284.040 17.200,283.600 17.200 C 283.160 17.200,282.800 17.020,282.800 16.800 C 282.800 16.580,282.440 16.400,282.000 16.400 C 281.560 16.400,281.200 16.220,281.200 16.000 C 281.200 15.780,280.840 15.600,280.400 15.600 C 279.960 15.600,279.600 15.420,279.600 15.200 C 279.600 14.980,279.060 14.800,278.400 14.800 C 277.740 14.800,277.200 14.620,277.200 14.400 C 277.200 14.180,276.840 14.000,276.400 14.000 C 275.960 14.000,275.600 13.820,275.600 13.600 C 275.600 13.380,275.060 13.200,274.400 13.200 C 273.740 13.200,273.200 13.020,273.200 12.800 C 273.200 12.580,272.840 12.400,272.400 12.400 C 271.960 12.400,271.600 12.220,271.600 12.000 C 271.600 11.780,271.060 11.600,270.400 11.600 C 269.740 11.600,269.200 11.420,269.200 11.200 C 269.200 10.548,267.707 10.745,267.443 11.433 M87.800 301.350 C 63.600 313.481,43.370 323.709,42.844 324.080 L 41.887 324.754 43.544 326.346 C 44.455 327.221,45.200 328.141,45.200 328.391 C 45.200 328.640,46.280 329.904,47.600 331.200 C 48.920 332.496,50.000 333.747,50.000 333.980 C 50.000 334.535,65.465 350.000,66.020 350.000 C 66.253 350.000,67.504 351.080,68.800 352.400 C 70.096 353.720,71.360 354.800,71.609 354.800 C 71.859 354.800,72.754 355.520,73.600 356.400 C 74.446 357.280,75.346 358.000,75.600 358.000 C 75.854 358.000,76.754 358.720,77.600 359.600 C 78.446 360.480,79.382 361.200,79.680 361.200 C 79.979 361.200,80.483 361.560,80.800 362.000 C 81.117 362.440,81.625 362.800,81.928 362.800 C 82.231 362.800,82.983 363.340,83.600 364.000 C 84.217 364.660,84.969 365.200,85.272 365.200 C 85.575 365.200,86.083 365.560,86.400 366.000 C 86.717 366.440,87.257 366.800,87.600 366.800 C 87.943 366.800,88.483 367.160,88.800 367.600 C 89.117 368.040,89.657 368.400,90.000 368.400 C 90.343 368.400,90.883 368.760,91.200 369.200 C 91.517 369.640,92.097 370.000,92.488 370.000 C 92.880 370.000,93.200 370.180,93.200 370.400 C 93.200 370.620,93.520 370.800,93.912 370.800 C 94.303 370.800,94.883 371.160,95.200 371.600 C 95.517 372.040,96.097 372.400,96.488 372.400 C 96.880 372.400,97.200 372.580,97.200 372.800 C 97.200 373.020,97.520 373.200,97.912 373.200 C 98.303 373.200,98.883 373.560,99.200 374.000 C 99.517 374.440,100.097 374.800,100.488 374.800 C 100.880 374.800,101.200 374.980,101.200 375.200 C 101.200 375.420,101.560 375.600,102.000 375.600 C 102.440 375.600,102.800 375.780,102.800 376.000 C 102.800 376.220,103.160 376.400,103.600 376.400 C 104.040 376.400,104.400 376.580,104.400 376.800 C 104.400 377.020,104.720 377.200,105.112 377.200 C 105.503 377.200,106.083 377.560,106.400 378.000 C 106.717 378.440,107.297 378.800,107.688 378.800 C 108.080 378.800,108.400 378.980,108.400 379.200 C 108.400 379.420,108.760 379.600,109.200 379.600 C 109.640 379.600,110.000 379.780,110.000 380.000 C 110.000 380.220,110.360 380.400,110.800 380.400 C 111.240 380.400,111.600 380.580,111.600 380.800 C 111.600 381.020,111.960 381.200,112.400 381.200 C 112.840 381.200,113.200 381.380,113.200 381.600 C 113.200 381.820,113.740 382.000,114.400 382.000 C 115.060 382.000,115.600 382.180,115.600 382.400 C 115.600 382.620,115.960 382.800,116.400 382.800 C 116.840 382.800,117.200 382.980,117.200 383.200 C 117.200 383.420,117.560 383.600,118.000 383.600 C 118.440 383.600,118.800 383.780,118.800 384.000 C 118.800 384.220,119.160 384.400,119.600 384.400 C 120.040 384.400,120.400 384.580,120.400 384.800 C 120.400 385.020,120.940 385.200,121.600 385.200 C 122.260 385.200,122.800 385.380,122.800 385.600 C 122.800 385.820,123.160 386.000,123.600 386.000 C 124.040 386.000,124.400 386.180,124.400 386.400 C 124.400 386.620,124.940 386.800,125.600 386.800 C 126.260 386.800,126.800 386.980,126.800 387.200 C 126.800 387.420,127.160 387.600,127.600 387.600 C 128.040 387.600,128.400 387.780,128.400 388.000 C 128.400 388.220,128.940 388.400,129.600 388.400 C 130.260 388.400,130.800 388.580,130.800 388.800 C 130.800 389.632,132.387 389.192,132.602 388.300 C 133.016 386.583,132.621 279.471,132.200 279.380 C 131.980 279.333,112.000 289.219,87.800 301.350 M267.467 279.467 C 267.134 279.800,267.110 387.700,267.443 388.567 C 267.707 389.255,269.200 389.452,269.200 388.800 C 269.200 388.580,269.740 388.400,270.400 388.400 C 271.060 388.400,271.600 388.220,271.600 388.000 C 271.600 387.780,271.960 387.600,272.400 387.600 C 272.840 387.600,273.200 387.420,273.200 387.200 C 273.200 386.980,273.740 386.800,274.400 386.800 C 275.060 386.800,275.600 386.620,275.600 386.400 C 275.600 386.180,275.960 386.000,276.400 386.000 C 276.840 386.000,277.200 385.820,277.200 385.600 C 277.200 385.380,277.740 385.200,278.400 385.200 C 279.060 385.200,279.600 385.020,279.600 384.800 C 279.600 384.580,279.960 384.400,280.400 384.400 C 280.840 384.400,281.200 384.220,281.200 384.000 C 281.200 383.780,281.560 383.600,282.000 383.600 C 282.440 383.600,282.800 383.420,282.800 383.200 C 282.800 382.980,283.160 382.800,283.600 382.800 C 284.040 382.800,284.400 382.620,284.400 382.400 C 284.400 382.180,284.940 382.000,285.600 382.000 C 286.260 382.000,286.800 381.820,286.800 381.600 C 286.800 381.380,287.160 381.200,287.600 381.200 C 288.040 381.200,288.400 381.020,288.400 380.800 C 288.400 380.580,288.760 380.400,289.200 380.400 C 289.640 380.400,290.000 380.220,290.000 380.000 C 290.000 379.780,290.360 379.600,290.800 379.600 C 291.240 379.600,291.600 379.420,291.600 379.200 C 291.600 378.980,291.920 378.800,292.312 378.800 C 292.703 378.800,293.283 378.440,293.600 378.000 C 293.917 377.560,294.497 377.200,294.888 377.200 C 295.280 377.200,295.600 377.020,295.600 376.800 C 295.600 376.580,295.960 376.400,296.400 376.400 C 296.840 376.400,297.200 376.220,297.200 376.000 C 297.200 375.780,297.560 375.600,298.000 375.600 C 298.440 375.600,298.800 375.420,298.800 375.200 C 298.800 374.980,299.120 374.800,299.512 374.800 C 299.903 374.800,300.483 374.440,300.800 374.000 C 301.117 373.560,301.697 373.200,302.088 373.200 C 302.480 373.200,302.800 373.020,302.800 372.800 C 302.800 372.580,303.120 372.400,303.512 372.400 C 303.903 372.400,304.483 372.040,304.800 371.600 C 305.117 371.160,305.697 370.800,306.088 370.800 C 306.480 370.800,306.800 370.620,306.800 370.400 C 306.800 370.180,307.120 370.000,307.512 370.000 C 307.903 370.000,308.483 369.640,308.800 369.200 C 309.117 368.760,309.657 368.400,310.000 368.400 C 310.343 368.400,310.883 368.040,311.200 367.600 C 311.517 367.160,312.057 366.800,312.400 366.800 C 312.743 366.800,313.283 366.440,313.600 366.000 C 313.917 365.560,314.425 365.200,314.728 365.200 C 315.031 365.200,315.783 364.660,316.400 364.000 C 317.017 363.340,317.769 362.800,318.072 362.800 C 318.375 362.800,318.883 362.440,319.200 362.000 C 319.517 361.560,320.021 361.200,320.320 361.200 C 320.618 361.200,321.554 360.480,322.400 359.600 C 323.246 358.720,324.146 358.000,324.400 358.000 C 324.654 358.000,325.554 357.280,326.400 356.400 C 327.246 355.520,328.141 354.800,328.391 354.800 C 328.640 354.800,329.904 353.720,331.200 352.400 C 332.496 351.080,333.747 350.000,333.980 350.000 C 334.535 350.000,350.000 334.535,350.000 333.980 C 350.000 333.747,351.080 332.496,352.400 331.200 C 353.720 329.904,354.800 328.640,354.800 328.391 C 354.800 328.141,355.545 327.221,356.456 326.346 L 358.113 324.754 357.156 324.080 C 356.473 323.599,268.044 279.200,267.768 279.200 C 267.749 279.200,267.613 279.320,267.467 279.467 " stroke="none" fill="#04247c" fill-rule="evenodd"></path><path id="path1" d="M155.600 4.000 C 155.600 4.220,154.880 4.400,154.000 4.400 C 153.120 4.400,152.400 4.580,152.400 4.800 C 152.400 5.020,151.680 5.200,150.800 5.200 C 149.920 5.200,149.200 5.380,149.200 5.600 C 149.200 5.820,148.480 6.000,147.600 6.000 C 146.720 6.000,146.000 6.180,146.000 6.400 C 146.000 6.620,145.280 6.800,144.400 6.800 C 143.520 6.800,142.800 6.980,142.800 7.200 C 142.800 7.420,142.260 7.600,141.600 7.600 C 140.940 7.600,140.400 7.780,140.400 8.000 C 140.400 8.220,139.860 8.400,139.200 8.400 C 138.540 8.400,138.000 8.580,138.000 8.800 C 138.000 9.020,137.460 9.200,136.800 9.200 C 136.140 9.200,135.600 9.380,135.600 9.600 C 135.600 9.820,135.105 10.000,134.500 10.000 L 133.400 10.000 133.507 65.610 C 133.593 110.208,133.513 121.258,133.107 121.413 C 132.828 121.519,112.260 111.434,87.400 99.003 C 62.540 86.571,42.059 76.400,41.887 76.400 C 41.362 76.400,38.800 79.138,38.800 79.698 C 38.800 79.987,38.440 80.483,38.000 80.800 C 37.560 81.117,37.200 81.625,37.200 81.928 C 37.200 82.231,36.660 82.983,36.000 83.600 C 35.340 84.217,34.800 84.969,34.800 85.272 C 34.800 85.575,34.440 86.083,34.000 86.400 C 33.560 86.717,33.200 87.257,33.200 87.600 C 33.200 87.943,32.840 88.483,32.400 88.800 C 31.960 89.117,31.600 89.657,31.600 90.000 C 31.600 90.343,31.240 90.883,30.800 91.200 C 30.360 91.517,30.000 92.097,30.000 92.488 C 30.000 92.880,29.820 93.200,29.600 93.200 C 29.380 93.200,29.200 93.520,29.200 93.912 C 29.200 94.303,28.840 94.883,28.400 95.200 C 27.960 95.517,27.600 96.097,27.600 96.488 C 27.600 96.880,27.420 97.200,27.200 97.200 C 26.980 97.200,26.800 97.520,26.800 97.912 C 26.800 98.303,26.440 98.883,26.000 99.200 C 25.560 99.517,25.200 100.097,25.200 100.488 C 25.200 100.880,25.020 101.200,24.800 101.200 C 24.580 101.200,24.400 101.560,24.400 102.000 C 24.400 102.440,24.220 102.800,24.000 102.800 C 23.780 102.800,23.600 103.160,23.600 103.600 C 23.600 104.040,23.420 104.400,23.200 104.400 C 22.980 104.400,22.800 104.720,22.800 105.112 C 22.800 105.503,22.440 106.083,22.000 106.400 C 21.560 106.717,21.200 107.297,21.200 107.688 C 21.200 108.080,21.020 108.400,20.800 108.400 C 20.580 108.400,20.415 108.805,20.432 109.300 C 20.460 110.083,23.436 111.675,43.232 121.504 C 55.755 127.721,66.000 132.990,66.000 133.212 C 66.000 133.481,56.651 133.580,38.000 133.508 L 10.000 133.400 10.000 134.500 C 10.000 135.105,9.820 135.600,9.600 135.600 C 9.380 135.600,9.200 136.140,9.200 136.800 C 9.200 137.460,9.020 138.000,8.800 138.000 C 8.580 138.000,8.400 138.540,8.400 139.200 C 8.400 139.860,8.220 140.400,8.000 140.400 C 7.780 140.400,7.600 140.940,7.600 141.600 C 7.600 142.260,7.420 142.800,7.200 142.800 C 6.980 142.800,6.800 143.520,6.800 144.400 C 6.800 145.280,6.620 146.000,6.400 146.000 C 6.180 146.000,6.000 146.720,6.000 147.600 C 6.000 148.480,5.820 149.200,5.600 149.200 C 5.380 149.200,5.200 149.920,5.200 150.800 C 5.200 151.680,5.020 152.400,4.800 152.400 C 4.580 152.400,4.400 153.120,4.400 154.000 C 4.400 154.880,4.220 155.600,4.000 155.600 C 3.780 155.600,3.600 156.590,3.600 157.801 L 3.600 160.002 81.700 159.901 L 159.800 159.800 159.901 81.700 L 160.002 3.600 157.801 3.600 C 156.590 3.600,155.600 3.780,155.600 4.000 M240.099 81.700 L 240.200 159.800 318.300 159.901 L 396.400 160.002 396.400 157.801 C 396.400 156.590,396.220 155.600,396.000 155.600 C 395.780 155.600,395.600 154.880,395.600 154.000 C 395.600 153.120,395.420 152.400,395.200 152.400 C 394.980 152.400,394.800 151.680,394.800 150.800 C 394.800 149.920,394.620 149.200,394.400 149.200 C 394.180 149.200,394.000 148.480,394.000 147.600 C 394.000 146.720,393.820 146.000,393.600 146.000 C 393.380 146.000,393.200 145.280,393.200 144.400 C 393.200 143.520,393.020 142.800,392.800 142.800 C 392.580 142.800,392.400 142.260,392.400 141.600 C 392.400 140.940,392.220 140.400,392.000 140.400 C 391.780 140.400,391.600 139.860,391.600 139.200 C 391.600 138.540,391.420 138.000,391.200 138.000 C 390.980 138.000,390.800 137.460,390.800 136.800 C 390.800 136.140,390.620 135.600,390.400 135.600 C 390.180 135.600,390.000 135.060,390.000 134.400 C 390.000 133.740,389.820 133.200,389.600 133.200 C 389.380 133.200,389.200 132.660,389.200 132.000 C 389.200 131.340,389.020 130.800,388.800 130.800 C 388.580 130.800,388.400 130.260,388.400 129.600 C 388.400 128.940,388.220 128.400,388.000 128.400 C 387.780 128.400,387.600 128.040,387.600 127.600 C 387.600 127.160,387.420 126.800,387.200 126.800 C 386.980 126.800,386.800 126.260,386.800 125.600 C 386.800 124.940,386.620 124.400,386.400 124.400 C 386.180 124.400,386.000 124.040,386.000 123.600 C 386.000 123.160,385.820 122.800,385.600 122.800 C 385.380 122.800,385.200 122.260,385.200 121.600 C 385.200 120.940,385.020 120.400,384.800 120.400 C 384.580 120.400,384.400 120.040,384.400 119.600 C 384.400 119.160,384.220 118.800,384.000 118.800 C 383.780 118.800,383.600 118.440,383.600 118.000 C 383.600 117.560,383.420 117.200,383.200 117.200 C 382.980 117.200,382.800 116.840,382.800 116.400 C 382.800 115.960,382.620 115.600,382.400 115.600 C 382.180 115.600,382.000 115.060,382.000 114.400 C 382.000 113.740,381.820 113.200,381.600 113.200 C 381.380 113.200,381.200 112.840,381.200 112.400 C 381.200 111.960,381.020 111.600,380.800 111.600 C 380.580 111.600,380.400 111.225,380.400 110.767 C 380.400 110.308,380.265 109.996,380.100 110.072 C 379.935 110.149,369.316 115.474,356.501 121.906 L 333.203 133.600 303.601 133.600 C 286.997 133.600,274.000 133.447,274.000 133.251 C 274.000 133.059,294.615 122.593,319.811 109.994 C 363.590 88.104,366.758 86.453,365.671 86.090 C 365.412 86.004,365.200 85.661,365.200 85.327 C 365.200 84.994,364.660 84.217,364.000 83.600 C 363.340 82.983,362.800 82.231,362.800 81.928 C 362.800 81.625,362.440 81.117,362.000 80.800 C 361.560 80.483,361.200 79.987,361.200 79.698 C 361.200 79.138,358.638 76.400,358.113 76.400 C 357.941 76.400,337.460 86.571,312.600 99.003 C 287.740 111.434,267.172 121.519,266.893 121.413 C 266.487 121.258,266.407 110.208,266.493 65.610 L 266.600 10.000 265.500 10.000 C 264.895 10.000,264.400 9.820,264.400 9.600 C 264.400 9.380,263.860 9.200,263.200 9.200 C 262.540 9.200,262.000 9.020,262.000 8.800 C 262.000 8.580,261.460 8.400,260.800 8.400 C 260.140 8.400,259.600 8.220,259.600 8.000 C 259.600 7.780,259.060 7.600,258.400 7.600 C 257.740 7.600,257.200 7.420,257.200 7.200 C 257.200 6.980,256.480 6.800,255.600 6.800 C 254.720 6.800,254.000 6.620,254.000 6.400 C 254.000 6.180,253.280 6.000,252.400 6.000 C 251.520 6.000,250.800 5.820,250.800 5.600 C 250.800 5.380,250.080 5.200,249.200 5.200 C 248.320 5.200,247.600 5.020,247.600 4.800 C 247.600 4.580,246.880 4.400,246.000 4.400 C 245.120 4.400,244.400 4.220,244.400 4.000 C 244.400 3.780,243.410 3.600,242.199 3.600 L 239.998 3.600 240.099 81.700 M3.600 242.199 C 3.600 243.410,3.780 244.400,4.000 244.400 C 4.220 244.400,4.400 245.120,4.400 246.000 C 4.400 246.880,4.580 247.600,4.800 247.600 C 5.020 247.600,5.200 248.320,5.200 249.200 C 5.200 250.080,5.380 250.800,5.600 250.800 C 5.820 250.800,6.000 251.520,6.000 252.400 C 6.000 253.280,6.180 254.000,6.400 254.000 C 6.620 254.000,6.800 254.720,6.800 255.600 C 6.800 256.480,6.980 257.200,7.200 257.200 C 7.420 257.200,7.600 257.740,7.600 258.400 C 7.600 259.060,7.780 259.600,8.000 259.600 C 8.220 259.600,8.400 260.140,8.400 260.800 C 8.400 261.460,8.580 262.000,8.800 262.000 C 9.020 262.000,9.200 262.540,9.200 263.200 C 9.200 263.860,9.380 264.400,9.600 264.400 C 9.820 264.400,10.000 264.940,10.000 265.600 C 10.000 266.260,10.180 266.800,10.400 266.800 C 10.620 266.800,10.800 267.340,10.800 268.000 C 10.800 268.660,10.980 269.200,11.200 269.200 C 11.420 269.200,11.600 269.740,11.600 270.400 C 11.600 271.060,11.780 271.600,12.000 271.600 C 12.220 271.600,12.400 271.960,12.400 272.400 C 12.400 272.840,12.580 273.200,12.800 273.200 C 13.020 273.200,13.200 273.740,13.200 274.400 C 13.200 275.060,13.380 275.600,13.600 275.600 C 13.820 275.600,14.000 275.960,14.000 276.400 C 14.000 276.840,14.180 277.200,14.400 277.200 C 14.620 277.200,14.800 277.740,14.800 278.400 C 14.800 279.060,14.980 279.600,15.200 279.600 C 15.420 279.600,15.600 279.960,15.600 280.400 C 15.600 280.840,15.780 281.200,16.000 281.200 C 16.220 281.200,16.400 281.560,16.400 282.000 C 16.400 282.440,16.580 282.800,16.800 282.800 C 17.020 282.800,17.200 283.160,17.200 283.600 C 17.200 284.040,17.380 284.400,17.600 284.400 C 17.820 284.400,18.000 284.940,18.000 285.600 C 18.000 286.260,18.180 286.800,18.400 286.800 C 18.620 286.800,18.800 287.160,18.800 287.600 C 18.800 288.040,18.980 288.400,19.200 288.400 C 19.420 288.400,19.600 288.775,19.600 289.233 C 19.600 289.692,19.735 290.004,19.900 289.928 C 20.065 289.851,30.684 284.526,43.499 278.094 L 66.797 266.400 96.399 266.400 C 113.003 266.400,126.000 266.553,126.000 266.749 C 126.000 266.941,105.385 277.407,80.189 290.006 C 36.410 311.896,33.242 313.547,34.329 313.910 C 34.588 313.996,34.800 314.339,34.800 314.673 C 34.800 315.006,35.340 315.783,36.000 316.400 C 36.660 317.017,37.200 317.769,37.200 318.072 C 37.200 318.375,37.560 318.883,38.000 319.200 C 38.440 319.517,38.800 320.013,38.800 320.302 C 38.800 320.862,41.362 323.600,41.887 323.600 C 42.059 323.600,62.540 313.429,87.400 300.997 C 112.260 288.566,132.828 278.481,133.107 278.587 C 133.513 278.742,133.593 289.792,133.507 334.390 L 133.400 390.000 134.500 390.000 C 135.105 390.000,135.600 390.180,135.600 390.400 C 135.600 390.620,136.140 390.800,136.800 390.800 C 137.460 390.800,138.000 390.980,138.000 391.200 C 138.000 391.420,138.540 391.600,139.200 391.600 C 139.860 391.600,140.400 391.780,140.400 392.000 C 140.400 392.220,140.940 392.400,141.600 392.400 C 142.260 392.400,142.800 392.580,142.800 392.800 C 142.800 393.020,143.520 393.200,144.400 393.200 C 145.280 393.200,146.000 393.380,146.000 393.600 C 146.000 393.820,146.720 394.000,147.600 394.000 C 148.480 394.000,149.200 394.180,149.200 394.400 C 149.200 394.620,149.920 394.800,150.800 394.800 C 151.680 394.800,152.400 394.980,152.400 395.200 C 152.400 395.420,153.120 395.600,154.000 395.600 C 154.880 395.600,155.600 395.780,155.600 396.000 C 155.600 396.220,156.590 396.400,157.801 396.400 L 160.002 396.400 159.901 318.300 L 159.800 240.200 81.700 240.099 L 3.600 239.998 3.600 242.199 M240.267 240.267 C 240.120 240.413,240.000 275.603,240.000 318.467 L 240.000 396.400 242.200 396.400 C 243.410 396.400,244.400 396.220,244.400 396.000 C 244.400 395.780,245.120 395.600,246.000 395.600 C 246.880 395.600,247.600 395.420,247.600 395.200 C 247.600 394.980,248.320 394.800,249.200 394.800 C 250.080 394.800,250.800 394.620,250.800 394.400 C 250.800 394.180,251.520 394.000,252.400 394.000 C 253.280 394.000,254.000 393.820,254.000 393.600 C 254.000 393.380,254.720 393.200,255.600 393.200 C 256.480 393.200,257.200 393.020,257.200 392.800 C 257.200 392.580,257.740 392.400,258.400 392.400 C 259.060 392.400,259.600 392.220,259.600 392.000 C 259.600 391.780,260.140 391.600,260.800 391.600 C 261.460 391.600,262.000 391.420,262.000 391.200 C 262.000 390.980,262.540 390.800,263.200 390.800 C 263.860 390.800,264.400 390.620,264.400 390.400 C 264.400 390.180,264.895 390.000,265.500 390.000 L 266.600 390.000 266.493 334.390 C 266.407 289.792,266.487 278.742,266.893 278.587 C 267.172 278.481,287.740 288.566,312.600 300.997 C 337.460 313.429,357.941 323.600,358.113 323.600 C 358.638 323.600,361.200 320.862,361.200 320.302 C 361.200 320.013,361.560 319.517,362.000 319.200 C 362.440 318.883,362.800 318.375,362.800 318.072 C 362.800 317.769,363.340 317.017,364.000 316.400 C 364.660 315.783,365.200 315.031,365.200 314.728 C 365.200 314.425,365.560 313.917,366.000 313.600 C 366.440 313.283,366.800 312.743,366.800 312.400 C 366.800 312.057,367.160 311.517,367.600 311.200 C 368.040 310.883,368.400 310.343,368.400 310.000 C 368.400 309.657,368.760 309.117,369.200 308.800 C 369.640 308.483,370.000 307.903,370.000 307.512 C 370.000 307.120,370.180 306.800,370.400 306.800 C 370.620 306.800,370.800 306.480,370.800 306.088 C 370.800 305.697,371.160 305.117,371.600 304.800 C 372.040 304.483,372.400 303.903,372.400 303.512 C 372.400 303.120,372.580 302.800,372.800 302.800 C 373.020 302.800,373.200 302.480,373.200 302.088 C 373.200 301.697,373.560 301.117,374.000 300.800 C 374.440 300.483,374.800 299.903,374.800 299.512 C 374.800 299.120,374.980 298.800,375.200 298.800 C 375.420 298.800,375.600 298.440,375.600 298.000 C 375.600 297.560,375.780 297.200,376.000 297.200 C 376.220 297.200,376.400 296.840,376.400 296.400 C 376.400 295.960,376.580 295.600,376.800 295.600 C 377.020 295.600,377.200 295.280,377.200 294.888 C 377.200 294.497,377.560 293.917,378.000 293.600 C 378.440 293.283,378.800 292.703,378.800 292.312 C 378.800 291.920,378.980 291.600,379.200 291.600 C 379.420 291.600,379.600 291.262,379.600 290.848 C 379.600 290.254,374.768 287.680,356.600 278.598 C 343.950 272.275,333.600 266.939,333.600 266.742 C 333.600 266.534,345.379 266.429,361.800 266.492 L 390.000 266.600 390.000 265.500 C 390.000 264.895,390.180 264.400,390.400 264.400 C 390.620 264.400,390.800 263.860,390.800 263.200 C 390.800 262.540,390.980 262.000,391.200 262.000 C 391.420 262.000,391.600 261.460,391.600 260.800 C 391.600 260.140,391.780 259.600,392.000 259.600 C 392.220 259.600,392.400 259.060,392.400 258.400 C 392.400 257.740,392.580 257.200,392.800 257.200 C 393.020 257.200,393.200 256.480,393.200 255.600 C 393.200 254.720,393.380 254.000,393.600 254.000 C 393.820 254.000,394.000 253.280,394.000 252.400 C 394.000 251.520,394.180 250.800,394.400 250.800 C 394.620 250.800,394.800 250.080,394.800 249.200 C 394.800 248.320,394.980 247.600,395.200 247.600 C 395.420 247.600,395.600 246.880,395.600 246.000 C 395.600 245.120,395.780 244.400,396.000 244.400 C 396.220 244.400,396.400 243.410,396.400 242.200 L 396.400 240.000 318.467 240.000 C 275.603 240.000,240.413 240.120,240.267 240.267 " stroke="none" fill="#fbfbfb" fill-rule="evenodd"></path><path id="path2" d="M177.700 0.275 C 175.665 0.360,174.000 0.603,174.000 0.815 C 174.000 1.027,172.740 1.200,171.200 1.200 C 169.600 1.200,168.400 1.371,168.400 1.600 C 168.400 1.822,167.333 2.000,166.000 2.000 C 164.667 2.000,163.600 2.178,163.600 2.400 C 163.600 2.620,162.700 2.800,161.600 2.800 C 160.500 2.800,159.600 2.980,159.600 3.200 C 159.600 3.420,159.780 3.600,160.001 3.600 C 160.268 3.600,160.368 29.769,160.301 81.900 L 160.200 160.200 81.900 160.301 C 29.769 160.368,3.600 160.268,3.600 160.001 C 3.600 159.780,3.420 159.600,3.200 159.600 C 2.980 159.600,2.800 160.500,2.800 161.600 C 2.800 162.700,2.620 163.600,2.400 163.600 C 2.178 163.600,2.000 164.667,2.000 166.000 C 2.000 167.333,1.822 168.400,1.600 168.400 C 1.372 168.400,1.200 169.589,1.200 171.167 C 1.200 173.024,1.036 173.988,0.700 174.100 C -0.032 174.344,-0.032 225.656,0.700 225.900 C 1.036 226.012,1.200 226.976,1.200 228.833 C 1.200 230.411,1.372 231.600,1.600 231.600 C 1.822 231.600,2.000 232.667,2.000 234.000 C 2.000 235.333,2.178 236.400,2.400 236.400 C 2.620 236.400,2.800 237.300,2.800 238.400 C 2.800 239.500,2.980 240.400,3.200 240.400 C 3.420 240.400,3.600 240.220,3.600 239.999 C 3.600 239.732,29.769 239.632,81.900 239.699 L 160.200 239.800 160.301 318.100 C 160.368 370.231,160.268 396.400,160.001 396.400 C 159.780 396.400,159.600 396.580,159.600 396.800 C 159.600 397.020,160.500 397.200,161.600 397.200 C 162.700 397.200,163.600 397.380,163.600 397.600 C 163.600 397.822,164.667 398.000,166.000 398.000 C 167.333 398.000,168.400 398.178,168.400 398.400 C 168.400 398.628,169.589 398.800,171.167 398.800 C 173.024 398.800,173.988 398.964,174.100 399.300 C 174.231 399.693,179.769 399.800,200.000 399.800 C 220.231 399.800,225.769 399.693,225.900 399.300 C 226.012 398.964,226.976 398.800,228.833 398.800 C 230.411 398.800,231.600 398.628,231.600 398.400 C 231.600 398.178,232.667 398.000,234.000 398.000 C 235.333 398.000,236.400 397.822,236.400 397.600 C 236.400 397.380,237.300 397.200,238.400 397.200 C 239.500 397.200,240.400 397.020,240.400 396.800 C 240.400 396.580,240.220 396.400,239.999 396.400 C 239.732 396.400,239.632 370.231,239.699 318.100 L 239.800 239.800 318.100 239.699 C 370.231 239.632,396.400 239.732,396.400 239.999 C 396.400 240.220,396.580 240.400,396.800 240.400 C 397.020 240.400,397.200 239.500,397.200 238.400 C 397.200 237.300,397.380 236.400,397.600 236.400 C 397.822 236.400,398.000 235.333,398.000 234.000 C 398.000 232.667,398.178 231.600,398.400 231.600 C 398.628 231.600,398.800 230.411,398.800 228.833 C 398.800 226.976,398.964 226.012,399.300 225.900 C 400.032 225.656,400.032 174.344,399.300 174.100 C 398.964 173.988,398.800 173.024,398.800 171.167 C 398.800 169.589,398.628 168.400,398.400 168.400 C 398.178 168.400,398.000 167.333,398.000 166.000 C 398.000 164.667,397.822 163.600,397.600 163.600 C 397.380 163.600,397.200 162.700,397.200 161.600 C 397.200 160.500,397.020 159.600,396.800 159.600 C 396.580 159.600,396.400 159.780,396.400 160.001 C 396.400 160.268,370.231 160.368,318.100 160.301 L 239.800 160.200 239.699 81.900 C 239.632 29.769,239.732 3.600,239.999 3.600 C 240.220 3.600,240.400 3.420,240.400 3.200 C 240.400 2.980,239.500 2.800,238.400 2.800 C 237.300 2.800,236.400 2.620,236.400 2.400 C 236.400 2.178,235.333 2.000,234.000 2.000 C 232.667 2.000,231.600 1.822,231.600 1.600 C 231.600 1.372,230.411 1.200,228.833 1.200 C 227.007 1.200,226.011 1.034,225.904 0.711 C 225.742 0.227,187.143 -0.122,177.700 0.275 M365.968 87.300 C 365.950 87.575,345.655 97.915,320.868 110.277 L 275.800 132.754 304.592 132.777 L 333.385 132.800 356.477 121.300 C 378.217 110.473,381.869 108.400,379.200 108.400 C 378.980 108.400,378.800 108.080,378.800 107.688 C 378.800 107.297,378.440 106.717,378.000 106.400 C 377.560 106.083,377.200 105.503,377.200 105.112 C 377.200 104.720,377.020 104.400,376.800 104.400 C 376.580 104.400,376.400 104.040,376.400 103.600 C 376.400 103.160,376.220 102.800,376.000 102.800 C 375.780 102.800,375.600 102.440,375.600 102.000 C 375.600 101.560,375.420 101.200,375.200 101.200 C 374.980 101.200,374.800 100.880,374.800 100.488 C 374.800 100.097,374.440 99.517,374.000 99.200 C 373.560 98.883,373.200 98.303,373.200 97.912 C 373.200 97.520,373.020 97.200,372.800 97.200 C 372.580 97.200,372.400 96.880,372.400 96.488 C 372.400 96.097,372.040 95.517,371.600 95.200 C 371.160 94.883,370.800 94.303,370.800 93.912 C 370.800 93.520,370.620 93.200,370.400 93.200 C 370.180 93.200,370.000 92.880,370.000 92.488 C 370.000 92.097,369.640 91.517,369.200 91.200 C 368.760 90.883,368.400 90.343,368.400 90.000 C 368.400 89.657,368.040 89.117,367.600 88.800 C 367.160 88.483,366.800 87.903,366.800 87.512 C 366.800 86.715,366.018 86.516,365.968 87.300 M19.600 110.800 C 19.600 111.240,19.420 111.600,19.200 111.600 C 18.980 111.600,18.800 111.960,18.800 112.400 C 18.800 112.840,18.620 113.200,18.400 113.200 C 18.180 113.200,18.000 113.740,18.000 114.400 C 18.000 115.060,17.820 115.600,17.600 115.600 C 17.380 115.600,17.200 115.960,17.200 116.400 C 17.200 116.840,17.020 117.200,16.800 117.200 C 16.580 117.200,16.400 117.560,16.400 118.000 C 16.400 118.440,16.220 118.800,16.000 118.800 C 15.780 118.800,15.600 119.160,15.600 119.600 C 15.600 120.040,15.420 120.400,15.200 120.400 C 14.980 120.400,14.800 120.940,14.800 121.600 C 14.800 122.260,14.620 122.800,14.400 122.800 C 14.180 122.800,14.000 123.160,14.000 123.600 C 14.000 124.040,13.820 124.400,13.600 124.400 C 13.380 124.400,13.200 124.940,13.200 125.600 C 13.200 126.260,13.020 126.800,12.800 126.800 C 12.580 126.800,12.400 127.160,12.400 127.600 C 12.400 128.040,12.220 128.400,12.000 128.400 C 11.780 128.400,11.600 128.940,11.600 129.600 C 11.600 130.260,11.420 130.800,11.200 130.800 C 10.980 130.800,10.800 131.250,10.800 131.800 L 10.800 132.800 37.400 132.800 C 52.030 132.800,64.000 132.733,64.000 132.651 C 64.000 132.570,54.190 127.597,42.200 121.600 C 30.210 115.603,20.400 110.540,20.400 110.349 C 20.400 110.157,20.220 110.000,20.000 110.000 C 19.780 110.000,19.600 110.360,19.600 110.800 M43.516 278.701 C 21.784 289.526,18.132 291.600,20.800 291.600 C 21.020 291.600,21.200 291.920,21.200 292.312 C 21.200 292.703,21.560 293.283,22.000 293.600 C 22.440 293.917,22.800 294.497,22.800 294.888 C 22.800 295.280,22.980 295.600,23.200 295.600 C 23.420 295.600,23.600 295.960,23.600 296.400 C 23.600 296.840,23.780 297.200,24.000 297.200 C 24.220 297.200,24.400 297.560,24.400 298.000 C 24.400 298.440,24.580 298.800,24.800 298.800 C 25.020 298.800,25.200 299.120,25.200 299.512 C 25.200 299.903,25.560 300.483,26.000 300.800 C 26.440 301.117,26.800 301.697,26.800 302.088 C 26.800 302.480,26.980 302.800,27.200 302.800 C 27.420 302.800,27.600 303.120,27.600 303.512 C 27.600 303.903,27.960 304.483,28.400 304.800 C 28.840 305.117,29.200 305.697,29.200 306.088 C 29.200 306.480,29.380 306.800,29.600 306.800 C 29.820 306.800,30.000 307.120,30.000 307.512 C 30.000 307.903,30.360 308.483,30.800 308.800 C 31.240 309.117,31.600 309.657,31.600 310.000 C 31.600 310.343,31.960 310.883,32.400 311.200 C 32.840 311.517,33.200 312.097,33.200 312.488 C 33.200 313.285,33.982 313.484,34.032 312.700 C 34.050 312.425,54.345 302.085,79.132 289.723 L 124.200 267.246 95.400 267.224 L 66.600 267.202 43.516 278.701 M357.400 278.267 C 369.500 284.330,379.460 289.450,379.533 289.645 C 379.785 290.315,380.400 290.000,380.400 289.200 C 380.400 288.760,380.580 288.400,380.800 288.400 C 381.020 288.400,381.200 288.040,381.200 287.600 C 381.200 287.160,381.380 286.800,381.600 286.800 C 381.820 286.800,382.000 286.260,382.000 285.600 C 382.000 284.940,382.180 284.400,382.400 284.400 C 382.620 284.400,382.800 284.040,382.800 283.600 C 382.800 283.160,382.980 282.800,383.200 282.800 C 383.420 282.800,383.600 282.440,383.600 282.000 C 383.600 281.560,383.780 281.200,384.000 281.200 C 384.220 281.200,384.400 280.840,384.400 280.400 C 384.400 279.960,384.580 279.600,384.800 279.600 C 385.020 279.600,385.200 279.060,385.200 278.400 C 385.200 277.740,385.380 277.200,385.600 277.200 C 385.820 277.200,386.000 276.840,386.000 276.400 C 386.000 275.960,386.180 275.600,386.400 275.600 C 386.620 275.600,386.800 275.060,386.800 274.400 C 386.800 273.740,386.980 273.200,387.200 273.200 C 387.420 273.200,387.600 272.840,387.600 272.400 C 387.600 271.960,387.780 271.600,388.000 271.600 C 388.220 271.600,388.400 271.060,388.400 270.400 C 388.400 269.740,388.580 269.200,388.800 269.200 C 389.020 269.200,389.200 268.750,389.200 268.200 L 389.200 267.200 362.300 267.222 L 335.400 267.244 357.400 278.267 " stroke="none" fill="#cc142c" fill-rule="evenodd"></path><path id="path3" d="M132.704 65.476 C 132.762 95.547,132.665 120.295,132.490 120.470 C 132.190 120.770,43.954 76.914,43.060 76.020 C 42.549 75.509,42.000 75.473,42.000 75.951 C 42.000 76.490,132.694 121.713,133.177 121.414 C 133.634 121.132,133.812 12.619,133.357 11.433 C 133.224 11.085,132.999 10.800,132.857 10.800 C 132.716 10.800,132.647 35.404,132.704 65.476 M266.643 11.433 C 266.188 12.619,266.366 121.132,266.823 121.414 C 267.306 121.713,358.000 76.490,358.000 75.951 C 358.000 75.473,357.451 75.509,356.940 76.020 C 356.046 76.914,267.810 120.770,267.510 120.470 C 267.335 120.295,267.238 95.547,267.296 65.476 C 267.353 35.404,267.284 10.800,267.143 10.800 C 267.001 10.800,266.776 11.085,266.643 11.433 M87.200 301.039 C 62.450 313.447,42.140 323.779,42.067 323.999 C 41.891 324.526,42.527 324.513,43.060 323.980 C 43.954 323.086,132.190 279.230,132.490 279.530 C 132.665 279.705,132.762 304.453,132.704 334.524 C 132.647 364.596,132.732 389.200,132.892 389.200 C 133.913 389.200,133.820 278.657,132.800 278.545 C 132.470 278.509,111.950 288.631,87.200 301.039 M266.667 278.667 C 266.334 279.000,266.310 387.700,266.643 388.567 C 266.776 388.915,267.001 389.200,267.143 389.200 C 267.284 389.200,267.353 364.596,267.296 334.524 C 267.238 304.453,267.335 279.705,267.510 279.530 C 267.810 279.230,356.046 323.086,356.940 323.980 C 357.451 324.491,358.000 324.527,358.000 324.049 C 358.000 323.743,267.776 278.400,267.166 278.400 C 267.038 278.400,266.813 278.520,266.667 278.667 " stroke="none" fill="#6474ac" fill-rule="evenodd"></path><path id="path4" d="M159.999 81.600 L 159.800 159.800 81.600 160.002 L 3.400 160.203 81.713 160.302 C 144.067 160.380,160.064 160.298,160.215 159.900 C 160.320 159.625,160.359 124.300,160.302 81.400 L 160.199 3.400 159.999 81.600 M239.798 81.800 L 239.800 160.200 318.200 160.202 L 396.600 160.204 318.400 160.002 L 240.200 159.800 239.998 81.600 L 239.796 3.400 239.798 81.800 M319.900 109.938 C 294.655 122.569,274.000 133.060,274.000 133.252 C 274.000 133.446,287.053 133.600,303.601 133.600 L 333.203 133.600 356.445 121.977 C 369.229 115.585,379.583 110.250,379.455 110.122 C 379.327 109.994,368.911 115.044,356.307 121.345 L 333.392 132.800 304.596 132.778 L 275.800 132.755 320.800 110.278 C 345.550 97.915,365.864 87.766,365.942 87.725 C 366.020 87.684,366.020 87.498,365.942 87.312 C 365.864 87.126,345.145 97.308,319.900 109.938 M20.400 110.549 C 20.400 110.630,30.254 115.625,42.297 121.649 L 64.195 132.600 37.497 132.703 C 20.162 132.770,10.800 132.945,10.800 133.203 C 10.800 133.462,20.398 133.600,38.400 133.600 C 56.177 133.600,66.000 133.460,66.000 133.208 C 66.000 132.816,21.583 110.400,20.808 110.400 C 20.584 110.400,20.400 110.467,20.400 110.549 M81.600 239.998 L 159.800 240.200 160.002 318.400 L 160.204 396.600 160.202 318.200 L 160.200 239.800 81.800 239.798 L 3.400 239.796 81.600 239.998 M239.867 239.867 C 239.720 240.013,239.644 275.338,239.698 318.367 L 239.797 396.600 239.998 318.400 L 240.200 240.200 318.400 239.998 L 396.600 239.797 318.367 239.698 C 275.338 239.644,240.013 239.720,239.867 239.867 M43.456 278.045 C 30.727 284.425,20.417 289.750,20.545 289.878 C 20.673 290.006,31.089 284.956,43.693 278.655 L 66.608 267.200 95.404 267.223 L 124.200 267.246 79.132 289.723 C 54.345 302.085,34.050 312.404,34.032 312.653 C 34.015 312.902,54.700 302.754,80.000 290.101 C 105.300 277.449,126.000 266.940,126.000 266.748 C 126.000 266.554,112.903 266.410,96.300 266.422 L 66.600 266.444 43.456 278.045 M333.600 266.750 C 333.600 267.163,379.270 290.064,379.545 289.788 C 379.839 289.494,380.558 289.868,357.400 278.266 L 335.400 267.244 362.300 267.222 C 379.952 267.208,389.200 267.062,389.200 266.800 C 389.200 266.537,379.667 266.400,361.400 266.400 C 345.794 266.400,333.600 266.553,333.600 266.750 " stroke="none" fill="#da465c" fill-rule="evenodd"></path></g></svg>